<svg xmlns="http://www.w3.org/2000/svg" width="22.418" height="18.681" viewBox="0 0 22.418 18.681">
  <g id="그룹_13734" data-name="그룹 13734" transform="translate(-64.5 -117.232)">
    <g id="그룹_13733" data-name="그룹 13733">
      <line id="선_1708" data-name="선 1708" x2="2.925" y2="2.925" transform="translate(82.578 118.646)" fill="none" stroke="#b5b7ba" stroke-linecap="round" stroke-linejoin="round" stroke-width="2"/>
      <line id="선_1709" data-name="선 1709" y1="2.925" x2="2.925" transform="translate(82.578 121.567)" fill="none" stroke="#b5b7ba" stroke-linecap="round" stroke-linejoin="round" stroke-width="2"/>
      <line id="선_1710" data-name="선 1710" x2="2.925" y2="2.925" transform="translate(82.578 128.654)" fill="none" stroke="#b5b7ba" stroke-linecap="round" stroke-linejoin="round" stroke-width="2"/>
      <line id="선_1711" data-name="선 1711" y1="2.925" x2="2.925" transform="translate(82.578 131.574)" fill="none" stroke="#b5b7ba" stroke-linecap="round" stroke-linejoin="round" stroke-width="2"/>
      <path id="패스_17996" data-name="패스 17996" d="M.5,13.43H4.453a2.52,2.52,0,0,0,1.782-.738l8.53-8.53a2.52,2.52,0,0,1,1.781-.738H20.5" transform="translate(65 118.146)" fill="none" stroke="#b5b7ba" stroke-linecap="round" stroke-linejoin="round" stroke-width="2"/>
      <path id="패스_17997" data-name="패스 17997" d="M.5,3.425H4.455a2.512,2.512,0,0,1,1.778.737l8.532,8.531a2.52,2.52,0,0,0,1.781.738H20.5" transform="translate(65 118.146)" fill="none" stroke="#b5b7ba" stroke-linecap="round" stroke-linejoin="round" stroke-width="2"/>
    </g>
  </g>
</svg>
